<svg xmlns="http://www.w3.org/2000/svg" viewBox="0 0 83.42 83.42"><defs><style>.cls-1{fill:#fff;}.cls-2{fill:#f5d492;}</style></defs><title>1_1</title><g id="Layer_2" data-name="Layer 2"><g id="Layer_2-2" data-name="Layer 2"><path class="cls-1" d="M81.92,83.42H1.5A1.5,1.5,0,0,1,0,81.92V1.5A1.5,1.5,0,0,1,1.5,0H81.92a1.5,1.5,0,0,1,1.5,1.5V81.92A1.5,1.5,0,0,1,81.92,83.42ZM3,80.42H80.42V3H3Z"/><path class="cls-2" d="M68.82,40.85,52.05,22.21l0,0a.86.86,0,0,0-.14-.13L51.8,22l-.18-.11-.09,0-.23-.08h-.06a1.06,1.06,0,0,0-.31,0H16.25a1.5,1.5,0,0,0-1.5,1.5v37a1.5,1.5,0,0,0,1.5,1.5H50.93a1.55,1.55,0,0,0,.31,0h0l.24-.08.08,0,.18-.11.09-.07.14-.13,0,0L68.81,42.87A1.51,1.51,0,0,0,68.82,40.85ZM17.75,27V24.71H20Zm4.58-2.24h3l-7.57,7.58v-3Zm5.35,0h3L17.75,37.63v-3Zm5.34,0h3L17.75,43V40Zm5.34,0h3l-23.6,23.6v-3Zm5.34,0h3L17.75,53.66v-3Zm5.34,0h.39v2.22L17.75,58.62V56Zm.39,4.57v3L23,58.71H20Zm0,5.35v3L28.34,58.71h-3Zm0,5.34v3L33.68,58.71h-3Zm0,5.34v3L39,58.71H36Zm0,5.34v3l-5.07,5.07h-3Zm0,5.34v2.72H46.71Zm3,.36V27.12L65.68,41.85Z"/></g></g></svg>