<svg xmlns="http://www.w3.org/2000/svg" viewBox="0 0 83.42 83.42"><defs><style>.cls-1{fill:#fff;}.cls-2{fill:#f5d492;}</style></defs><title>1_4</title><g id="Layer_2" data-name="Layer 2"><g id="Layer_2-2" data-name="Layer 2"><path class="cls-1" d="M81.92,83.42H1.5A1.5,1.5,0,0,1,0,81.92V1.5A1.5,1.5,0,0,1,1.5,0H81.92a1.5,1.5,0,0,1,1.5,1.5V81.92A1.5,1.5,0,0,1,81.92,83.42ZM3,80.42H80.42V3H3Z"/><path class="cls-2" d="M67.18,21.71H32.49a1.55,1.55,0,0,0-.31,0l0,0a1.13,1.13,0,0,0-.24.08l-.07,0-.19.1-.08.07a.86.86,0,0,0-.14.13l0,0L14.62,40.56a1.49,1.49,0,0,0,0,2L31.37,61.22l0,0a.86.86,0,0,0,.14.13l.09.07.18.1.08.05.23.07.06,0a1.55,1.55,0,0,0,.31,0H67.18a1.5,1.5,0,0,0,1.5-1.5v-37A1.5,1.5,0,0,0,67.18,21.71Zm-1.5,34.77v2.23H63.44Zm-4.59,2.23h-3l7.58-7.58v3Zm-5.34,0h-3L65.68,45.79v3Zm-5.34,0h-3L65.68,40.45v3Zm-5.34,0h-3l23.61-23.6v3Zm-5.35,0h-3l29-28.94v3ZM34,54.14v-3L60.43,24.71h3Zm0-5.34v-3l21.09-21.1h3Zm0-5.34v-3L49.74,24.71h3Zm0-5.34v-3L44.4,24.71h3Zm0-5.35v-3l5.07-5.07h3Zm0-5.34V24.71h2.72Zm.39,31.28H34V56.49L65.68,24.8v2.62ZM31,27.08V56.3L17.75,41.58Z"/></g></g></svg>