<svg xmlns="http://www.w3.org/2000/svg" viewBox="0 0 83.42 83.42"><defs><style>.cls-1{fill:#fff;}.cls-2{fill:#f5d492;}</style></defs><title>1_5</title><g id="Layer_2" data-name="Layer 2"><g id="Layer_2-2" data-name="Layer 2"><path class="cls-1" d="M81.92,83.42H1.5A1.5,1.5,0,0,1,0,81.92V1.5A1.5,1.5,0,0,1,1.5,0H81.92a1.5,1.5,0,0,1,1.5,1.5V81.92A1.5,1.5,0,0,1,81.92,83.42ZM3,80.42H80.42V3H3Z"/><path class="cls-2" d="M67.84,39a.7.7,0,0,0,0-.25.25.25,0,0,0,0-.08v-.21s0-.08,0-.11a1.06,1.06,0,0,0,0-.19,0,0,0,0,0,0,0l-7.51-23.7a1.5,1.5,0,0,0-1.74-1l-24.53,5.2h0l-.18.05-.11,0-.17.1-.09.06a1.14,1.14,0,0,0-.17.15s0,0,0,.05a2.35,2.35,0,0,0-.19.25l-17.34,30a1.5,1.5,0,0,0,.55,2l32,18.5a1.53,1.53,0,0,0,.75.2,1.31,1.31,0,0,0,.39,0,1.48,1.48,0,0,0,.91-.7l17.34-30a1,1,0,0,0,.13-.28A.11.11,0,0,0,67.84,39ZM43.5,27l2.59,1.49,7.72,28.82-1.5,2.59Zm4.62,2.67,2.59,1.49,5.77,21.52L55,55.32Zm4.63,2.67,2.59,1.5L59.15,48.1l-1.5,2.59Zm4.62,2.67L60,36.55l1.86,6.92-1.49,2.59ZM62,37.72l2.36,1.36L63,41.44Zm1.81-2.42L38.5,20.69l19.37-4.11ZM21.36,45.55,22.86,43l2.77,10.35L23,51.82ZM24,40.93l1.5-2.59L30.26,56l-2.59-1.49ZM26.7,36.3l1.5-2.59,6.68,24.94-2.59-1.49Zm2.67-4.63,1.5-2.59,8.64,32.25-2.59-1.5ZM32,27.05l1.5-2.59L44.13,64l-2.59-1.5ZM20.19,47.59l.81,3-1.93-1.12Zm26,17.58L34.72,22.42l.19-.34,1.93,1.11L48.43,66.48Zm3.47-.6L38.87,24.37l2.59,1.49L51.14,62Z"/></g></g></svg>