<svg xmlns="http://www.w3.org/2000/svg" viewBox="0 0 83.42 83.42"><defs><style>.cls-1{fill:#fff;}.cls-2{fill:#f5d492;}</style></defs><title>1_2</title><g id="Layer_2" data-name="Layer 2"><g id="Layer_2-2" data-name="Layer 2"><path class="cls-1" d="M81.92,83.42H1.5A1.5,1.5,0,0,1,0,81.92V1.5A1.5,1.5,0,0,1,1.5,0H81.92a1.5,1.5,0,0,1,1.5,1.5V81.92A1.5,1.5,0,0,1,81.92,83.42ZM3,80.42H80.42V3H3Z"/><path class="cls-2" d="M62,51.62a.41.41,0,0,0,0-.09,1.55,1.55,0,0,0,.07-.23.14.14,0,0,0,0-.06,1.55,1.55,0,0,0,0-.31V16.25a1.5,1.5,0,0,0-1.5-1.5h-37a1.5,1.5,0,0,0-1.5,1.5V50.93a1.55,1.55,0,0,0,0,.31s0,0,0,0a2.25,2.25,0,0,0,.08.24l0,.08a.87.87,0,0,0,.11.18l.06.09.13.14,0,0L41.05,68.81a1.5,1.5,0,0,0,2,0L61.71,52.05l0,0a.86.86,0,0,0,.13-.14l.07-.08A1.62,1.62,0,0,0,62,51.62ZM25.2,49.43V46.71l2.72,2.72Zm5.07,0L25.2,44.36v-3l8.07,8.06Zm5.35,0L25.2,39V36l13.41,13.4Zm5.34,0L25.2,33.68v-3L44,49.43Zm5.34,0L25.2,28.34v-3L49.29,49.43Zm5.34,0L25.2,23V20L54.63,49.43ZM59.2,20,57,17.75H59.2Zm0,2.35v3l-7.57-7.58h3Zm0,5.35v3L46.28,17.75h3Zm0,5.34v3L40.94,17.75h3Zm0,5.34v3L35.6,17.75h3Zm0,5.34v3L30.26,17.75h3Zm0,5.34v.39H57L25.29,17.75h2.62ZM42.07,65.68,27.57,52.43H56.79Z"/></g></g></svg>