<svg xmlns="http://www.w3.org/2000/svg" viewBox="0 0 83.42 83.42"><defs><style>.cls-1{fill:#fff;}.cls-2{fill:#f5d492;}</style></defs><title>1_3</title><g id="Layer_2" data-name="Layer 2"><g id="Layer_2-2" data-name="Layer 2"><path class="cls-1" d="M81.92,83.42H1.5A1.5,1.5,0,0,1,0,81.92V1.5A1.5,1.5,0,0,1,1.5,0H81.92a1.5,1.5,0,0,1,1.5,1.5V81.92A1.5,1.5,0,0,1,81.92,83.42ZM3,80.42H80.42V3H3Z"/><path class="cls-2" d="M60.21,22.61h-37a1.5,1.5,0,0,0-1.5,1.5V58.79a1.5,1.5,0,0,0,1.5,1.5h37a1.5,1.5,0,0,0,1.5-1.5V24.11A1.5,1.5,0,0,0,60.21,22.61Zm-30.93,3h3L58.71,52v3Zm5.35,0h3L58.71,46.7v3Zm5.34,0h3L58.71,41.36v3Zm5.34,0h3L58.71,36v3Zm5.34,0h3l5.07,5.07v3Zm8.06,2.72L56,25.61h2.72ZM26.93,25.61,58.62,57.29H56L24.71,26v-.39ZM24.71,55.06,27,57.29H24.71Zm0-2.35v-3l7.58,7.57h-3Zm0-5.34v-3L37.63,57.29h-3Zm0-5.35V39L43,57.29H40Zm0-5.34v-3l23.6,23.6h-3Zm0-5.34v-3L53.66,57.29h-3Z"/></g></g></svg>