<svg xmlns="http://www.w3.org/2000/svg" viewBox="0 0 404 83.47"><defs><style>.cls-1{fill:#fff;}.cls-2{fill:#f5d492;}</style></defs><title>1</title><g id="Layer_2" data-name="Layer 2"><g id="Layer_2-2" data-name="Layer 2"><path class="cls-1" d="M353.5,35.75a6.3,6.3,0,0,1,1.07-3.38,8.26,8.26,0,0,1,3.13-2.84,9.84,9.84,0,0,1,4.8-1.12,10.2,10.2,0,0,1,4.5.94,7.29,7.29,0,0,1,3,2.55,6.27,6.27,0,0,1,1.06,3.52,5.48,5.48,0,0,1-.6,2.62A8.23,8.23,0,0,1,369,40c-.56.55-1.56,1.46-3,2.75a10.78,10.78,0,0,0-1,1,3.65,3.65,0,0,0-.53.76,3.61,3.61,0,0,0-.28.68c-.06.23-.16.63-.29,1.21a2,2,0,0,1-2.09,1.82,2.18,2.18,0,0,1-1.54-.59,2.38,2.38,0,0,1-.62-1.78,6.47,6.47,0,0,1,.46-2.56,6.35,6.35,0,0,1,1.21-1.9,27.24,27.24,0,0,1,2-1.94c.75-.65,1.29-1.15,1.62-1.48a5.1,5.1,0,0,0,.85-1.12,2.7,2.7,0,0,0,.34-1.34,3.11,3.11,0,0,0-1.05-2.37,3.81,3.81,0,0,0-2.69-1,3.74,3.74,0,0,0-2.85,1A7.77,7.77,0,0,0,358.1,36c-.4,1.33-1.15,2-2.27,2a2.24,2.24,0,0,1-1.66-.69A2.15,2.15,0,0,1,353.5,35.75ZM362.07,55a2.75,2.75,0,0,1-1.87-.7,2.44,2.44,0,0,1-.8-1.94,2.48,2.48,0,0,1,.78-1.86,2.56,2.56,0,0,1,1.89-.76,2.58,2.58,0,0,1,2.62,2.62,2.46,2.46,0,0,1-.79,1.94A2.68,2.68,0,0,1,362.07,55Z"/><path class="cls-1" d="M81.92,83.47H1.5A1.5,1.5,0,0,1,0,82V1.55A1.5,1.5,0,0,1,1.5.05H81.92a1.5,1.5,0,0,1,1.5,1.5V82A1.5,1.5,0,0,1,81.92,83.47ZM3,80.47H80.42V3.05H3Z"/><path class="cls-1" d="M189,83.47H108.58a1.5,1.5,0,0,1-1.5-1.5V1.55a1.5,1.5,0,0,1,1.5-1.5H189a1.5,1.5,0,0,1,1.5,1.5V82A1.5,1.5,0,0,1,189,83.47Zm-78.92-3H187.5V3.05H110.08Z"/><path class="cls-1" d="M295.51,83.47H215.09a1.5,1.5,0,0,1-1.5-1.5V1.55a1.5,1.5,0,0,1,1.5-1.5h80.42a1.5,1.5,0,0,1,1.5,1.5V82A1.5,1.5,0,0,1,295.51,83.47Zm-78.92-3H294V3.05H216.59Z"/><path class="cls-1" d="M402.5,83.42h-6a1.5,1.5,0,0,1,0-3H401v-4.5a1.5,1.5,0,0,1,3,0v6A1.5,1.5,0,0,1,402.5,83.42Z"/><path class="cls-1" d="M387.49,83.42h-10.8a1.5,1.5,0,0,1,0-3h10.8a1.5,1.5,0,0,1,0,3Zm-19.8,0H356.88a1.5,1.5,0,0,1,0-3h10.81a1.5,1.5,0,0,1,0,3Zm-19.81,0h-10.8a1.5,1.5,0,0,1,0-3h10.8a1.5,1.5,0,0,1,0,3Z"/><path class="cls-1" d="M328.07,83.42h-6a1.5,1.5,0,0,1-1.5-1.5v-6a1.5,1.5,0,0,1,3,0v4.5h4.5a1.5,1.5,0,0,1,0,3Z"/><path class="cls-1" d="M322.07,68.42a1.5,1.5,0,0,1-1.5-1.5V56.12a1.5,1.5,0,0,1,3,0v10.8A1.5,1.5,0,0,1,322.07,68.42Zm0-19.81a1.5,1.5,0,0,1-1.5-1.5V36.31a1.5,1.5,0,0,1,3,0v10.8A1.5,1.5,0,0,1,322.07,48.61Zm0-19.8a1.5,1.5,0,0,1-1.5-1.5V16.5a1.5,1.5,0,0,1,3,0V27.31A1.5,1.5,0,0,1,322.07,28.81Z"/><path class="cls-1" d="M322.07,9a1.5,1.5,0,0,1-1.5-1.5v-6a1.5,1.5,0,0,1,1.5-1.5h6a1.5,1.5,0,0,1,0,3h-4.5V7.5A1.5,1.5,0,0,1,322.07,9Z"/><path class="cls-1" d="M387.49,3h-10.8a1.5,1.5,0,0,1,0-3h10.8a1.5,1.5,0,0,1,0,3Zm-19.8,0H356.88a1.5,1.5,0,0,1,0-3h10.81a1.5,1.5,0,0,1,0,3ZM347.88,3h-10.8a1.5,1.5,0,0,1,0-3h10.8a1.5,1.5,0,0,1,0,3Z"/><path class="cls-1" d="M402.5,9A1.5,1.5,0,0,1,401,7.5V3h-4.5a1.5,1.5,0,0,1,0-3h6A1.5,1.5,0,0,1,404,1.5v6A1.5,1.5,0,0,1,402.5,9Z"/><path class="cls-1" d="M402.5,68.42a1.5,1.5,0,0,1-1.5-1.5V56.12a1.5,1.5,0,0,1,3,0v10.8A1.5,1.5,0,0,1,402.5,68.42Zm0-19.81a1.5,1.5,0,0,1-1.5-1.5V36.31a1.5,1.5,0,0,1,3,0v10.8A1.5,1.5,0,0,1,402.5,48.61Zm0-19.8a1.5,1.5,0,0,1-1.5-1.5V16.5a1.5,1.5,0,0,1,3,0V27.31A1.5,1.5,0,0,1,402.5,28.81Z"/><path class="cls-2" d="M61.68,32.23s0,0,0,0a2.17,2.17,0,0,0-.07-.24l0-.07-.11-.19-.07-.08a.86.86,0,0,0-.13-.14s0,0,0,0L42.87,14.67a1.5,1.5,0,0,0-2,0L22.21,31.42l0,0a.86.86,0,0,0-.13.14l-.07.09a1.74,1.74,0,0,0-.11.18s0,.05,0,.08a1.55,1.55,0,0,0-.08.23.14.14,0,0,1,0,.06,1.55,1.55,0,0,0,0,.31V67.23a1.5,1.5,0,0,0,1.5,1.5h37a1.5,1.5,0,0,0,1.5-1.5V32.54A1.55,1.55,0,0,0,61.68,32.23Zm-37,31.26L27,65.73H24.71Zm0-2.35v-3l7.58,7.58h-3Zm0-5.34v-3L37.63,65.73h-3Zm0-5.34v-3L43,65.73H40Zm0-5.34v-3l23.6,23.61h-3Zm0-5.35v-3l28.95,29h-3Zm0-5.34V34h2.22L58.62,65.73H56ZM29.28,34h3L58.71,60.48v3Zm5.35,0h3L58.71,55.13v3ZM40,34h3L58.71,49.79v3Zm5.34,0h3L58.71,44.45v3Zm5.34,0h3l5.07,5.07v3ZM56,34h2.72v2.72ZM41.85,17.8,56.35,31H27.12Z"/><path class="cls-2" d="M174.78,49.45l-17.34-30a1.44,1.44,0,0,0-.18-.25l0,0A1.54,1.54,0,0,0,157,19l-.07-.05-.18-.1-.11,0a1,1,0,0,0-.18-.06h0l-24.28-5.34a1.48,1.48,0,0,0-1.74,1L122.67,38.2a.08.08,0,0,1,0,0l0,.18a.36.36,0,0,0,0,.11.67.67,0,0,0,0,.2v.1a2,2,0,0,0,0,.24.13.13,0,0,1,0,.06,2.39,2.39,0,0,0,.13.28l17.34,30a1.48,1.48,0,0,0,.91.7,1.31,1.31,0,0,0,.39,0,1.43,1.43,0,0,0,.75-.2l32.05-18.5A1.5,1.5,0,0,0,174.78,49.45ZM139.7,62.68l-1.5-2.59,10.35,2.78L146,64.36ZM137,58.06l-1.5-2.59,17.65,4.72-2.59,1.5Zm-2.67-4.63-1.5-2.59,24.95,6.68L155.22,59Zm-2.67-4.63-1.5-2.59,32.24,8.64-2.59,1.5ZM129,44.18l-1.5-2.59,39.54,10.59-2.59,1.5Zm26.57-22L157,24.57l-3.71-1Zm-4.39,2.54,6.93,1.85,1.49,2.59-11-3Zm-4.62,2.67,14.22,3.81,1.49,2.59L144,28.91ZM142,30.09l21.52,5.77,1.5,2.59-25.61-6.87Zm-4.63,2.67,28.82,7.72,1.5,2.59-32.91-8.81Zm-4.62,2.67,36.11,9.68,1.5,2.59-40.2-10.77Zm-6.36,4.12-.19-.34,1.92-1.11,43.29,11.6L169.09,51Zm6.53-23L152,20.8l-25.3,14.61Zm8,48.14,3.06.82L142,66.65Z"/><path class="cls-2" d="M283.61,34a1.48,1.48,0,0,0-.7-.91l-30-17.34-.28-.13h-.07l-.23-.05H252l-.12,0-.18,0h0L228,23.15a1.51,1.51,0,0,0-1,1.74l5.19,24.53a.06.06,0,0,1,0,0l.06.17a.76.76,0,0,1,0,.11l.1.17.06.09a.8.8,0,0,0,.15.17l.05.06a1.44,1.44,0,0,0,.25.18l30,17.34a1.48,1.48,0,0,0,2-.54l18.5-32A1.51,1.51,0,0,0,283.61,34ZM264.23,62.47l-1.12,1.94-1.93-1.12Zm-5.09-.36-2.59-1.49,10.35-2.78-1.49,2.59Zm-4.63-2.67L251.92,58l17.65-4.73-1.49,2.59Zm-4.62-2.67-2.59-1.49,24.94-6.69-1.49,2.59Zm-4.63-2.67-2.59-1.49L274.91,44l-1.49,2.59Zm-4.62-2.67-2.59-1.5,39.53-10.59-1.49,2.59Zm12-32.31L255,20.48l-3.72,1Zm-2.54,4.39,6.93-1.86,2.59,1.5-11,3Zm-2.67,4.62,14.23-3.81,2.59,1.5L246,30.73Zm-2.67,4.63L266.31,27l2.59,1.5-25.6,6.86Zm-2.67,4.63,28.82-7.72,2.59,1.49L240.63,40ZM239.45,42l36.11-9.67,2.6,1.49L238,44.6ZM236,48.76l-.34-.2,1.11-1.92L280.07,35l-1.31,2.27Zm12.88-29.09L234.28,45,230.17,25.6Z"/></g></g></svg>